<svg id="Green" xmlns="http://www.w3.org/2000/svg" viewBox="0 0 261 220.25"><defs><style>.cls-1,.cls-2{fill:none;}.cls-1{stroke:#808285;stroke-miterlimit:2;stroke-width:0.25px;stroke-dasharray:2.5 1.5;}.cls-2{stroke:#231f20;stroke-miterlimit:10;stroke-width:0.35px;}.cls-3{fill:#231f20;}.cls-4{fill:#00ac5b;}.cls-5{fill:#06509f;}.cls-6{fill:#fff;}.cls-7{fill:#184898;}</style></defs><path class="cls-1" d="M48.91,154c.44-.08,74.67-60.23,177.47-69.46"/><polyline class="cls-2" points="15.84 49.44 15.84 187.5 253.38 187.5"/><polygon class="cls-3" points="14.1 49.95 15.84 46.92 17.59 49.95 14.1 49.95"/><polygon class="cls-3" points="252.87 189.25 255.89 187.5 252.87 185.75 252.87 189.25"/><path class="cls-4" d="M103.28,122.69l20.13,14.63a24.89,24.89,0,0,1-40.27-29.26A24.15,24.15,0,0,1,103.28,97.8Z"/><path class="cls-5" d="M102.8,123V93.59h.5a29.16,29.16,0,0,1,29.12,29.12,27.83,27.83,0,0,1-5.56,17.12l-.29.4Z"/><path class="cls-6" d="M103.3,94.09a28.62,28.62,0,0,1,28.62,28.62,27.39,27.39,0,0,1-5.47,16.82L103.3,122.71V94.09m0-1h-1v30.13l.41.3,23.16,16.82.81.59.58-.81a28.27,28.27,0,0,0,5.66-17.41A29.66,29.66,0,0,0,103.3,93.09Z"/><path class="cls-4" d="M162.18,101.74l-7.7,23.69a24.9,24.9,0,0,1-16-31.39,24.53,24.53,0,0,1,23.7-17.22Z"/><path class="cls-5" d="M162.19,130.86a27.63,27.63,0,0,1-9-1.43l-.47-.16,9-27.65V72.55h.5a29.16,29.16,0,1,1,0,58.31Z"/><path class="cls-6" d="M162.19,73.05a28.66,28.66,0,1,1,0,57.31,27.19,27.19,0,0,1-8.85-1.41l8.85-27.25V73.05m0-1h-1v29.49l-8.8,27.1-.31,1,.95.3a28.24,28.24,0,0,0,9.16,1.46,29.66,29.66,0,1,0,0-59.31Z"/><path class="cls-4" d="M226.38,83.56l-23.84,7.75a25.06,25.06,0,0,1,16.1-31.58,23.66,23.66,0,0,1,7.74-1.23Z"/><path class="cls-5" d="M226.41,112.89a28.88,28.88,0,0,1-27.89-20.26l-.16-.48,27.55-9V54.25h.5a29.32,29.32,0,0,1,0,58.64Z"/><path class="cls-6" d="M226.41,54.75a28.82,28.82,0,0,1,0,57.64A28.38,28.38,0,0,1,199,92.47l27.42-8.9V54.75m0-1h-1V82.84l-26.73,8.68-1,.31.31,1a29.38,29.38,0,0,0,28.37,20.61,29.82,29.82,0,1,0,0-59.64Z"/><path class="cls-3" d="M108.35,192h4.15v1.14h-2.81v1.59H112v1.13h-2.33v1.68h3v1.13h-4.31Z"/><path class="cls-3" d="M116,196.11l1.58,2.51h-1.43l-.88-1.54h0l-.87,1.54h-1.37l1.58-2.42-1.49-2.37h1.43l.78,1.35h0l.8-1.35h1.39Z"/><path class="cls-3" d="M119.63,193.83v.46a4.43,4.43,0,0,1,.59-.43,1.15,1.15,0,0,1,.59-.14,1.57,1.57,0,0,1,.8.24,1.89,1.89,0,0,1,.68.78,2.89,2.89,0,0,1,.28,1.36,3,3,0,0,1-.52,2,1.66,1.66,0,0,1-1.34.61,1.56,1.56,0,0,1-1.08-.44v2h-1.26v-6.43Zm1.51,3.51a2.73,2.73,0,0,0,.19-1.07,2.59,2.59,0,0,0-.19-1,.68.68,0,0,0-.66-.44.74.74,0,0,0-.44.14,2.75,2.75,0,0,0-.41.38v1.86a2.17,2.17,0,0,0,.37.41.72.72,0,0,0,.45.15A.68.68,0,0,0,121.14,197.34Z"/><path class="cls-3" d="M124.29,198.37a2.12,2.12,0,0,1-.72-.92,3.27,3.27,0,0,1,0-2.46,2.19,2.19,0,0,1,.75-.92,1.94,1.94,0,0,1,1.18-.35,1.89,1.89,0,0,1,1.48.62,3.17,3.17,0,0,1,.55,2.07v.12H124.6a1.36,1.36,0,0,0,.08.59,1.25,1.25,0,0,0,.33.47.77.77,0,0,0,.53.19,1.05,1.05,0,0,0,.64-.22,1.46,1.46,0,0,0,.44-.57l.78.66a2.18,2.18,0,0,1-2,1.07A1.9,1.9,0,0,1,124.29,198.37Zm1.8-3.41a.7.7,0,0,0-.62-.31.69.69,0,0,0-.61.32,1.5,1.5,0,0,0-.22.75h1.65A1.39,1.39,0,0,0,126.09,195Z"/><path class="cls-3" d="M129.2,198.37a2.12,2.12,0,0,1-.72-.92,3.27,3.27,0,0,1,0-2.46,2.1,2.1,0,0,1,.71-.92,1.85,1.85,0,0,1,1.15-.35,1.89,1.89,0,0,1,1.27.37,2.37,2.37,0,0,1,.69,1.07l-1.07.49a2.07,2.07,0,0,0-.27-.73.69.69,0,0,0-.62-.27.63.63,0,0,0-.62.48,3.08,3.08,0,0,0-.18,1.09,3.33,3.33,0,0,0,.17,1.09.64.64,0,0,0,.63.48.67.67,0,0,0,.61-.27,2,2,0,0,0,.27-.74l1.09.47a2.11,2.11,0,0,1-.73,1.08,2,2,0,0,1-1.24.39A1.9,1.9,0,0,1,129.2,198.37Z"/><path class="cls-3" d="M133.8,198.37a1.59,1.59,0,0,1-.35-1.13v-2.36h-.59v-1h.59v-1.12l1.27-.6v1.72h1v1h-1v2.4a.5.5,0,0,0,.11.34.42.42,0,0,0,.35.14,1.2,1.2,0,0,0,.53-.14v1a2.57,2.57,0,0,1-.82.12A1.52,1.52,0,0,1,133.8,198.37Z"/><path class="cls-3" d="M137.23,198.37a2.12,2.12,0,0,1-.72-.92,3.27,3.27,0,0,1,0-2.46,2.19,2.19,0,0,1,.75-.92,1.94,1.94,0,0,1,1.18-.35,1.89,1.89,0,0,1,1.48.62,3.11,3.11,0,0,1,.55,2.07v.12h-2.93a1.37,1.37,0,0,0,.09.59,1.13,1.13,0,0,0,.32.47.78.78,0,0,0,.53.19,1,1,0,0,0,.64-.22,1.46,1.46,0,0,0,.44-.57l.78.66a2.18,2.18,0,0,1-2,1.07A1.9,1.9,0,0,1,137.23,198.37ZM139,195a.7.7,0,0,0-.62-.31.66.66,0,0,0-.6.32,1.41,1.41,0,0,0-.23.75h1.65A1.39,1.39,0,0,0,139,195Z"/><path class="cls-3" d="M141.77,198.11a3,3,0,0,1-.52-2,2.89,2.89,0,0,1,.28-1.36,2,2,0,0,1,.68-.78,1.6,1.6,0,0,1,.8-.24,1.12,1.12,0,0,1,.59.14,4.43,4.43,0,0,1,.59.43v-2.17l1.27-.51v7h-1.13v-.4a2,2,0,0,1-.57.38,1.6,1.6,0,0,1-.65.12A1.66,1.66,0,0,1,141.77,198.11Zm2.42-1v-1.84a2.31,2.31,0,0,0-.4-.38.71.71,0,0,0-.45-.14.67.67,0,0,0-.66.44,2.55,2.55,0,0,0-.19,1,2.79,2.79,0,0,0,.19,1,.68.68,0,0,0,.69.45A1,1,0,0,0,144.19,197.09Z"/><path class="cls-3" d="M150.14,193.83v.83a2.63,2.63,0,0,1,.66-.7,1.34,1.34,0,0,1,.81-.24,1.1,1.1,0,0,1,.24,0V195a1.66,1.66,0,0,0-.32,0,1.26,1.26,0,0,0-.71.21,3.71,3.71,0,0,0-.68.66v2.79h-1.27v-4.79Z"/><path class="cls-3" d="M152.79,193.08a.68.68,0,0,1-.22-.51.73.73,0,0,1,.73-.74.72.72,0,0,1,.74.74.73.73,0,0,1-.74.73A.68.68,0,0,1,152.79,193.08Zm-.12.75h1.27v4.79h-1.27Z"/><path class="cls-3" d="M155.71,198.47a2,2,0,0,1-.72-.72l.8-.77a1.9,1.9,0,0,0,.43.54.92.92,0,0,0,.61.22.74.74,0,0,0,.39-.11.35.35,0,0,0,.18-.33.39.39,0,0,0-.21-.36,3.82,3.82,0,0,0-.66-.22,5.14,5.14,0,0,1-.75-.24,1.21,1.21,0,0,1-.5-.41,1.25,1.25,0,0,1-.21-.76,1.5,1.5,0,0,1,.24-.86,1.56,1.56,0,0,1,.64-.55,2,2,0,0,1,.86-.18,1.87,1.87,0,0,1,.9.21,2.31,2.31,0,0,1,.65.54l-.63.82a1.41,1.41,0,0,0-1-.58.54.54,0,0,0-.4.13.44.44,0,0,0-.13.33.37.37,0,0,0,.2.34,3,3,0,0,0,.65.24,5.29,5.29,0,0,1,.75.26,1.26,1.26,0,0,1,.51.41,1.21,1.21,0,0,1,.21.75,1.37,1.37,0,0,1-.52,1.16,2.31,2.31,0,0,1-2.33.14Z"/><path class="cls-3" d="M162.32,198.62l-1.07-2-.44.55v1.45h-1.27v-6.5l1.27-.51v2.95c0,.51,0,.89,0,1.14h0c.32-.48.56-.82.71-1l.63-.85h1.46l-1.47,1.81,1.61,3Z"/><path class="cls-3" d="M114.75,92.09a1.78,1.78,0,0,1-.69-.52,1.68,1.68,0,0,1-.37-.81l1-.36a1.06,1.06,0,0,0,.27.72.84.84,0,0,0,.66.27.75.75,0,0,0,.56-.25.91.91,0,0,0-.06-1.27,1.29,1.29,0,0,0-.78-.22l-.39,0v-.87a1.91,1.91,0,0,0,.42.06,1.06,1.06,0,0,0,.68-.21.69.69,0,0,0,.27-.6.63.63,0,0,0-.2-.48.69.69,0,0,0-.51-.19.73.73,0,0,0-.55.25.94.94,0,0,0-.24.6l-1-.48a1.68,1.68,0,0,1,.69-.91,2,2,0,0,1,1.13-.34,1.84,1.84,0,0,1,.83.19,1.52,1.52,0,0,1,.65.52,1.29,1.29,0,0,1,.25.8,1.12,1.12,0,0,1-.21.7,1.8,1.8,0,0,1-.63.48,1.49,1.49,0,0,1,.69.51,1.27,1.27,0,0,1,.26.79,1.64,1.64,0,0,1-.27.93,1.72,1.72,0,0,1-.71.62,2.15,2.15,0,0,1-.94.21A2.13,2.13,0,0,1,114.75,92.09Z"/><path class="cls-3" d="M118.87,91.92a1.55,1.55,0,0,1-.66-1l1-.46a1.1,1.1,0,0,0,.26.67.78.78,0,0,0,.58.25.76.76,0,0,0,.63-.32,1.21,1.21,0,0,0,.24-.76,1.25,1.25,0,0,0-.23-.74.75.75,0,0,0-.64-.32.81.81,0,0,0-.48.15.73.73,0,0,0-.28.41l-1-.23.09-3h3.11v1h-2.2l0,1.18a1.59,1.59,0,0,1,1.07-.41,1.54,1.54,0,0,1,.9.27,1.83,1.83,0,0,1,.59.7,2.12,2.12,0,0,1,.21.94,2,2,0,0,1-.28,1A2,2,0,0,1,121,92a2,2,0,0,1-1,.26A1.94,1.94,0,0,1,118.87,91.92Z"/><path class="cls-3" d="M122.84,89a1.62,1.62,0,0,1-.3-1,1.84,1.84,0,0,1,.28-1.06,1,1,0,0,1,.92-.42,1,1,0,0,1,.91.43,1.83,1.83,0,0,1,.28,1,1.68,1.68,0,0,1-.29,1,1.07,1.07,0,0,1-.9.4A1,1,0,0,1,122.84,89Zm1.2-.46a2.24,2.24,0,0,0,.06-.58,2.14,2.14,0,0,0-.06-.58.28.28,0,0,0-.3-.21.3.3,0,0,0-.32.21,2.14,2.14,0,0,0-.06.58,1.83,1.83,0,0,0,.07.58.29.29,0,0,0,.31.21A.29.29,0,0,0,124,88.52Zm2.41-1.93h.67l-2.81,5.56h-.68Zm-.33,5.25a1.68,1.68,0,0,1-.29-1,1.91,1.91,0,0,1,.27-1,1,1,0,0,1,.92-.42,1,1,0,0,1,.92.42,1.91,1.91,0,0,1,.27,1,1.61,1.61,0,0,1-.29,1,1,1,0,0,1-.9.39A1.06,1.06,0,0,1,126.12,91.84Zm1.2-.46a1.85,1.85,0,0,0,.07-.57,2.22,2.22,0,0,0-.06-.59A.3.3,0,0,0,127,90a.29.29,0,0,0-.31.21,2.22,2.22,0,0,0-.06.59,2.26,2.26,0,0,0,.06.57.3.3,0,0,0,.31.22A.29.29,0,0,0,127.32,91.38Z"/><path class="cls-3" d="M179.36,71a1.52,1.52,0,0,1-.65-1l1-.45a1.11,1.11,0,0,0,.27.66.72.72,0,0,0,.57.25.75.75,0,0,0,.63-.31,1.23,1.23,0,0,0,.24-.76,1.21,1.21,0,0,0-.23-.75.73.73,0,0,0-.63-.32.84.84,0,0,0-.49.16.68.68,0,0,0-.27.41l-1-.24.09-3H182v.94h-2.2l0,1.19a1.51,1.51,0,0,1,1.07-.41,1.55,1.55,0,0,1,.89.26,1.77,1.77,0,0,1,.6.7,2.3,2.3,0,0,1,.2.94,2.05,2.05,0,0,1-.27,1,1.92,1.92,0,0,1-.74.73,2.07,2.07,0,0,1-1,.27A2,2,0,0,1,179.36,71Z"/><path class="cls-3" d="M183.8,71a1.61,1.61,0,0,1-.66-1l1-.45a1.11,1.11,0,0,0,.27.66.72.72,0,0,0,.57.25.75.75,0,0,0,.63-.31,1.23,1.23,0,0,0,.24-.76,1.21,1.21,0,0,0-.23-.75.73.73,0,0,0-.63-.32.82.82,0,0,0-.49.16.74.74,0,0,0-.28.41l-1-.24.09-3h3.1v.94h-2.2l0,1.19a1.64,1.64,0,0,1,2-.15,1.77,1.77,0,0,1,.6.7,2.3,2.3,0,0,1,.2.94,2.05,2.05,0,0,1-.27,1,1.92,1.92,0,0,1-.74.73,2.06,2.06,0,0,1-1,.27A2,2,0,0,1,183.8,71Z"/><path class="cls-3" d="M187.77,68.05a1.64,1.64,0,0,1-.29-1,1.91,1.91,0,0,1,.27-1,1.22,1.22,0,0,1,1.84,0,1.91,1.91,0,0,1,.28,1,1.62,1.62,0,0,1-.3,1,1,1,0,0,1-.9.4A1,1,0,0,1,187.77,68.05Zm1.2-.46A1.76,1.76,0,0,0,189,67a2.22,2.22,0,0,0-.06-.59.3.3,0,0,0-.31-.21.29.29,0,0,0-.31.21,2.22,2.22,0,0,0-.06.59,1.76,1.76,0,0,0,.07.57.31.31,0,0,0,.6,0Zm2.42-1.92h.66l-2.81,5.56h-.67Zm-.33,5.24a1.57,1.57,0,0,1-.3-1,1.92,1.92,0,0,1,.28-1.06,1,1,0,0,1,.92-.42,1,1,0,0,1,.92.42,1.92,1.92,0,0,1,.27,1.06,1.63,1.63,0,0,1-.29,1,1,1,0,0,1-.9.4A1,1,0,0,1,191.06,70.91Zm1.2-.46a2.1,2.1,0,0,0,.07-.57,2.07,2.07,0,0,0-.07-.58.28.28,0,0,0-.3-.21.28.28,0,0,0-.31.21,2.4,2.4,0,0,0,0,1.15.32.32,0,0,0,.61,0Z"/><path class="cls-3" d="M241.68,50.53a9.37,9.37,0,0,1,1.4-2.32h-2.29v-1h3.6v.61A12,12,0,0,0,243,50.36a7.36,7.36,0,0,0-.6,2.46h-1.25A7.24,7.24,0,0,1,241.68,50.53Z"/><path class="cls-3" d="M246,52.61a2,2,0,0,1-.76-.92,3.88,3.88,0,0,1-.29-1.6,3.63,3.63,0,0,1,.55-2.17,1.78,1.78,0,0,1,1.51-.74,1.76,1.76,0,0,1,1.52.74,3.63,3.63,0,0,1,.55,2.17,3.88,3.88,0,0,1-.29,1.6,2.07,2.07,0,0,1-.75.92,2,2,0,0,1-1,.29A1.86,1.86,0,0,1,246,52.61Zm1.81-1.18a4.39,4.39,0,0,0,.18-1.34,8.7,8.7,0,0,0-.05-.93,1.83,1.83,0,0,0-.27-.74.73.73,0,0,0-.66-.33.7.7,0,0,0-.64.33,1.58,1.58,0,0,0-.27.74,6.69,6.69,0,0,0-.05.93,4.39,4.39,0,0,0,.18,1.34A.74.74,0,0,0,247,52,.76.76,0,0,0,247.76,51.43Z"/><path class="cls-3" d="M249.69,49.65a1.62,1.62,0,0,1-.3-1,1.92,1.92,0,0,1,.28-1.06,1.21,1.21,0,0,1,1.83,0,1.86,1.86,0,0,1,.28,1.06,1.65,1.65,0,0,1-.29,1,1.22,1.22,0,0,1-1.8,0Zm1.2-.47a2.1,2.1,0,0,0,.07-.57,2.2,2.2,0,0,0-.07-.59.27.27,0,0,0-.3-.2c-.17,0-.27.06-.31.2a1.86,1.86,0,0,0-.07.59,1.76,1.76,0,0,0,.07.57.29.29,0,0,0,.31.22A.29.29,0,0,0,250.89,49.18Zm2.41-1.92H254l-2.81,5.56h-.68ZM253,52.5a1.63,1.63,0,0,1-.29-1,1.94,1.94,0,0,1,.27-1.06,1,1,0,0,1,.92-.42,1,1,0,0,1,.92.42,1.94,1.94,0,0,1,.27,1.06,1.56,1.56,0,0,1-.29,1,1,1,0,0,1-.9.4A1,1,0,0,1,253,52.5Zm1.2-.45a1.85,1.85,0,0,0,.07-.57,2.17,2.17,0,0,0-.06-.59.3.3,0,0,0-.31-.21.29.29,0,0,0-.31.21,2.17,2.17,0,0,0-.06.59,2.26,2.26,0,0,0,.06.57.3.3,0,0,0,.31.21A.28.28,0,0,0,254.17,52.05Z"/><path d="M202,52.75a1.73,1.73,0,0,1-.69-.51,1.58,1.58,0,0,1-.36-.81l1-.36a1.17,1.17,0,0,0,.27.72.9.9,0,0,0,.66.26.76.76,0,0,0,.56-.24.78.78,0,0,0,.24-.57.82.82,0,0,0-.29-.7,1.28,1.28,0,0,0-.79-.22l-.39,0v-.86a1.81,1.81,0,0,0,.42.05,1.06,1.06,0,0,0,.68-.2.71.71,0,0,0,.27-.61.66.66,0,0,0-.2-.48.72.72,0,0,0-.51-.18.69.69,0,0,0-.54.25.86.86,0,0,0-.25.59l-1-.47a1.68,1.68,0,0,1,.69-.91,1.93,1.93,0,0,1,1.13-.34,2,2,0,0,1,.84.18,1.58,1.58,0,0,1,.64.53,1.28,1.28,0,0,1,.26.8,1.14,1.14,0,0,1-.21.7,1.8,1.8,0,0,1-.63.48,1.55,1.55,0,0,1,.69.5,1.29,1.29,0,0,1,.25.8,1.58,1.58,0,0,1-.27.92,1.68,1.68,0,0,1-.7.62,2.07,2.07,0,0,1-1,.22A2.16,2.16,0,0,1,202,52.75Z"/><path d="M206.35,52.61a2,2,0,0,1-.76-.92,3.88,3.88,0,0,1-.29-1.6,3.63,3.63,0,0,1,.55-2.17,1.78,1.78,0,0,1,1.52-.74,1.75,1.75,0,0,1,1.51.74,3.56,3.56,0,0,1,.55,2.17,3.88,3.88,0,0,1-.29,1.6,2,2,0,0,1-.75.92,1.94,1.94,0,0,1-2,0Zm1.81-1.18a4.39,4.39,0,0,0,.18-1.34,8.7,8.7,0,0,0-.05-.93,1.83,1.83,0,0,0-.27-.74.81.81,0,0,0-1.3,0,1.69,1.69,0,0,0-.27.74,8.7,8.7,0,0,0,0,.93,4.39,4.39,0,0,0,.18,1.34.74.74,0,0,0,.79.56A.76.76,0,0,0,208.16,51.43Z"/><path d="M210.09,49.65a1.61,1.61,0,0,1-.29-1,1.92,1.92,0,0,1,.27-1.06,1.21,1.21,0,0,1,1.83,0,1.86,1.86,0,0,1,.28,1.06,1.65,1.65,0,0,1-.29,1,1.22,1.22,0,0,1-1.8,0Zm1.2-.47a2.1,2.1,0,0,0,.07-.57,2.2,2.2,0,0,0-.07-.59.27.27,0,0,0-.3-.2c-.17,0-.27.06-.31.2a1.86,1.86,0,0,0-.07.59,2.1,2.1,0,0,0,.07.57.29.29,0,0,0,.31.22A.29.29,0,0,0,211.29,49.18Zm2.41-1.92h.67l-2.81,5.56h-.68Zm-.33,5.24a1.63,1.63,0,0,1-.29-1,1.94,1.94,0,0,1,.27-1.06,1,1,0,0,1,.92-.42,1,1,0,0,1,.92.42,1.94,1.94,0,0,1,.28,1.06,1.57,1.57,0,0,1-.3,1,1,1,0,0,1-.9.4A1,1,0,0,1,213.37,52.5Zm1.2-.45a1.85,1.85,0,0,0,.07-.57,2.17,2.17,0,0,0-.06-.59.3.3,0,0,0-.31-.21.29.29,0,0,0-.31.21,2.17,2.17,0,0,0-.06.59,1.85,1.85,0,0,0,.07.57.32.32,0,0,0,.6,0Z"/><path d="M138.11,69.81h-2.18V69l2-3.45h1.31v3.38h.69v.88h-.69V71.1h-1.12Zm0-.88V67h0l-1.08,2Z"/><path d="M141.12,70.87a1.53,1.53,0,0,1-.66-1l1-.46a1.07,1.07,0,0,0,.26.67.79.79,0,0,0,1.21-.07,1.2,1.2,0,0,0,.24-.75,1.26,1.26,0,0,0-.23-.75.75.75,0,0,0-.64-.32.81.81,0,0,0-.48.15.73.73,0,0,0-.28.41l-1-.23.09-3h3.11v.94h-2.2l0,1.19a1.6,1.6,0,0,1,2-.15,1.75,1.75,0,0,1,.59.7,2.12,2.12,0,0,1,.21.94,2.06,2.06,0,0,1-1,1.78,2,2,0,0,1-1,.27A2,2,0,0,1,141.12,70.87Z"/><path d="M145.09,67.93a1.58,1.58,0,0,1-.3-1,1.94,1.94,0,0,1,.28-1.06,1,1,0,0,1,.92-.42,1,1,0,0,1,.91.43,1.83,1.83,0,0,1,.28,1,1.68,1.68,0,0,1-.29,1,1.07,1.07,0,0,1-.9.4A1,1,0,0,1,145.09,67.93Zm1.2-.46a2.83,2.83,0,0,0,0-1.16.28.28,0,0,0-.3-.21.28.28,0,0,0-.31.21,2.44,2.44,0,0,0,0,1.16.29.29,0,0,0,.31.21A.29.29,0,0,0,146.29,67.47Zm2.41-1.92h.67l-2.81,5.55h-.68Zm-.33,5.24a1.65,1.65,0,0,1-.29-1,1.92,1.92,0,0,1,.27-1.06,1,1,0,0,1,.92-.42,1,1,0,0,1,.92.42,1.92,1.92,0,0,1,.27,1.06,1.58,1.58,0,0,1-.29,1,1,1,0,0,1-.9.4A1.07,1.07,0,0,1,148.37,70.79Zm1.2-.46a1.76,1.76,0,0,0,.07-.57,2.27,2.27,0,0,0-.06-.59.29.29,0,0,0-.31-.2.28.28,0,0,0-.31.2,2.27,2.27,0,0,0-.06.59,2.16,2.16,0,0,0,.06.57.29.29,0,0,0,.31.22A.28.28,0,0,0,149.57,70.33Z"/><path d="M78.7,92A2.07,2.07,0,0,1,78,91a3.93,3.93,0,0,1-.29-1.61A3.83,3.83,0,0,1,78,87.81a2.08,2.08,0,0,1,.77-1,2,2,0,0,1,1.08-.32,1.64,1.64,0,0,1,1.55.85l-.73.73a.84.84,0,0,0-.8-.64.75.75,0,0,0-.54.21,1.22,1.22,0,0,0-.33.52,2,2,0,0,0-.1.63,3,3,0,0,1,.53-.24,1.43,1.43,0,0,1,.5-.09,1.69,1.69,0,0,1,.76.2,1.75,1.75,0,0,1,.66.61,1.82,1.82,0,0,1,.26,1,2,2,0,0,1-.29,1.08,2,2,0,0,1-.72.68,1.78,1.78,0,0,1-.83.22A1.83,1.83,0,0,1,78.7,92ZM80.26,91a1.2,1.2,0,0,0,.2-.7,1.1,1.1,0,0,0-.19-.64.63.63,0,0,0-.55-.27,1,1,0,0,0-.46.11,2.15,2.15,0,0,0-.45.31,2.59,2.59,0,0,0,.19,1,.67.67,0,0,0,.65.47A.72.72,0,0,0,80.26,91Z"/><path d="M82.8,91.92a1.59,1.59,0,0,1-.66-1l1-.46a1.17,1.17,0,0,0,.27.67.78.78,0,0,0,1.2-.07,1.21,1.21,0,0,0,.24-.76,1.19,1.19,0,0,0-.23-.74.73.73,0,0,0-.63-.32.81.81,0,0,0-.49.15.78.78,0,0,0-.28.41l-1-.23.09-3h3.1v1h-2.2l0,1.18a1.62,1.62,0,0,1,1.08-.41,1.49,1.49,0,0,1,.89.27,1.77,1.77,0,0,1,.6.7,2.26,2.26,0,0,1,.2.94,2,2,0,0,1-.27,1A2,2,0,0,1,85,92a2,2,0,0,1-1,.26A2,2,0,0,1,82.8,91.92Z"/><path d="M86.77,89a1.68,1.68,0,0,1-.29-1,1.92,1.92,0,0,1,.27-1.06,1,1,0,0,1,.92-.42,1,1,0,0,1,.92.43,1.91,1.91,0,0,1,.28,1,1.62,1.62,0,0,1-.3,1,1,1,0,0,1-.9.4A1.07,1.07,0,0,1,86.77,89Zm1.2-.46a1.83,1.83,0,0,0,.07-.58,2.14,2.14,0,0,0-.06-.58.3.3,0,0,0-.31-.21.29.29,0,0,0-.31.21,2.14,2.14,0,0,0-.06.58,1.83,1.83,0,0,0,.07.58.32.32,0,0,0,.6,0Zm2.42-1.93h.66l-2.81,5.56h-.67Zm-.33,5.25a1.61,1.61,0,0,1-.29-1,1.91,1.91,0,0,1,.27-1,1,1,0,0,1,.92-.42,1,1,0,0,1,.92.42,1.91,1.91,0,0,1,.27,1,1.68,1.68,0,0,1-.29,1,1.06,1.06,0,0,1-.9.39A1,1,0,0,1,90.06,91.84Zm1.2-.46a2.21,2.21,0,0,0,.07-.57,2.15,2.15,0,0,0-.07-.59A.28.28,0,0,0,91,90a.28.28,0,0,0-.31.21,1.82,1.82,0,0,0-.07.59,2.21,2.21,0,0,0,.07.57.3.3,0,0,0,.31.22A.3.3,0,0,0,91.26,91.38Z"/><path class="cls-3" d="M6.81,152v-4.15H7.94v2.81H9.53v-2.33h1.14v2.33h1.67v-3h1.13V152Z"/><path class="cls-3" d="M11,144.3l2.51-1.59v1.44l-1.53.88v0l1.53.86v1.38l-2.42-1.59-2.37,1.5v-1.44L10,145v0l-1.36-.8v-1.38Z"/><path class="cls-3" d="M8.68,140.7h.47a3.85,3.85,0,0,1-.44-.59,1.22,1.22,0,0,1-.14-.59,1.54,1.54,0,0,1,.24-.79,1.91,1.91,0,0,1,.78-.69,3,3,0,0,1,1.36-.28,3.16,3.16,0,0,1,2,.52,1.69,1.69,0,0,1,.6,1.34,1.56,1.56,0,0,1-.44,1.08h2V142H8.68Zm3.51-1.51a2.93,2.93,0,0,0-1.07-.18,2.45,2.45,0,0,0-1,.19.66.66,0,0,0-.44.65.72.72,0,0,0,.14.44,2.4,2.4,0,0,0,.39.41h1.85a2.17,2.17,0,0,0,.41-.37.67.67,0,0,0,.16-.45A.69.69,0,0,0,12.19,139.19Z"/><path class="cls-3" d="M13.22,136a2.12,2.12,0,0,1-.92.72,3.15,3.15,0,0,1-2.46,0,2.09,2.09,0,0,1-.92-.74,2,2,0,0,1-.35-1.19,1.87,1.87,0,0,1,.63-1.48,3.12,3.12,0,0,1,2.06-.54h.12v2.92a1.34,1.34,0,0,0,.59-.08,1.06,1.06,0,0,0,.47-.33.77.77,0,0,0,.19-.53,1.05,1.05,0,0,0-.22-.64,1.61,1.61,0,0,0-.56-.44l.65-.78a2.19,2.19,0,0,1,1.07,2A1.8,1.8,0,0,1,13.22,136Zm-3.41-1.8a.71.71,0,0,0-.31.63.68.68,0,0,0,.32.6,1.42,1.42,0,0,0,.76.22v-1.64A1.42,1.42,0,0,0,9.81,134.24Z"/><path class="cls-3" d="M13.22,131.13a2.12,2.12,0,0,1-.92.72,3.14,3.14,0,0,1-1.23.24,3.32,3.32,0,0,1-1.23-.23,2.12,2.12,0,0,1-.92-.72,2.21,2.21,0,0,1,0-2.42A2.44,2.44,0,0,1,10,128l.49,1.07a2,2,0,0,0-.72.27.68.68,0,0,0-.28.61.62.62,0,0,0,.48.62,3.08,3.08,0,0,0,1.09.18,3.33,3.33,0,0,0,1.09-.17.64.64,0,0,0,.49-.63.68.68,0,0,0-.28-.61,2.06,2.06,0,0,0-.74-.26l.48-1.09a2,2,0,0,1,1.46,2A1.84,1.84,0,0,1,13.22,131.13Z"/><path class="cls-3" d="M13.22,126.53a1.59,1.59,0,0,1-1.13.35H9.73v.6H8.68v-.6H7.56L7,125.61H8.68v-1H9.73v1h2.4a.53.53,0,0,0,.34-.1.44.44,0,0,0,.14-.35,1.21,1.21,0,0,0-.14-.54h1a2.91,2.91,0,0,1,.11.82A1.47,1.47,0,0,1,13.22,126.53Z"/><path class="cls-3" d="M13.22,123.1a2.12,2.12,0,0,1-.92.72,3,3,0,0,1-1.23.25,3.14,3.14,0,0,1-1.23-.25,2.17,2.17,0,0,1-.92-.74,2,2,0,0,1-.35-1.19,1.87,1.87,0,0,1,.63-1.48,3.12,3.12,0,0,1,2.06-.55h.12v2.93a1.34,1.34,0,0,0,.59-.08,1.06,1.06,0,0,0,.47-.33.77.77,0,0,0,.19-.53,1.05,1.05,0,0,0-.22-.64,1.5,1.5,0,0,0-.56-.44l.65-.78a2.19,2.19,0,0,1,1.07,2A1.82,1.82,0,0,1,13.22,123.1Zm-3.41-1.8a.71.71,0,0,0-.31.62.69.69,0,0,0,.32.61,1.42,1.42,0,0,0,.76.22v-1.64A1.42,1.42,0,0,0,9.81,121.3Z"/><path class="cls-3" d="M13,118.56a3.1,3.1,0,0,1-2,.52,2.89,2.89,0,0,1-1.36-.28,1.82,1.82,0,0,1-.78-.68,1.57,1.57,0,0,1-.24-.79,1.2,1.2,0,0,1,.14-.59,3.07,3.07,0,0,1,.44-.59H7l-.52-1.27h7V116h-.4a2.64,2.64,0,0,1,.39.57,1.82,1.82,0,0,1,.11.66A1.67,1.67,0,0,1,13,118.56Zm-1-2.41H10.1a2,2,0,0,0-.38.39.75.75,0,0,0-.14.45.66.66,0,0,0,.44.66,2.38,2.38,0,0,0,1,.19,2.57,2.57,0,0,0,1-.19.67.67,0,0,0,.45-.68A1,1,0,0,0,11.94,116.15Z"/><path class="cls-3" d="M8.68,110.19h.83a2.78,2.78,0,0,1-.7-.65,1.39,1.39,0,0,1-.24-.82c0-.06,0-.14,0-.23H9.84a1.48,1.48,0,0,0,0,.31,1.24,1.24,0,0,0,.21.71,3.42,3.42,0,0,0,.66.68h2.79v1.27H8.68Z"/><path class="cls-3" d="M13.22,107.07a2.28,2.28,0,0,1-.92.72,3.14,3.14,0,0,1-1.23.24,3,3,0,0,1-1.23-.25,2.09,2.09,0,0,1-.92-.74,2,2,0,0,1-.35-1.19,1.87,1.87,0,0,1,.63-1.48,3.12,3.12,0,0,1,2.06-.54h.12v2.92a1.34,1.34,0,0,0,.59-.08,1.06,1.06,0,0,0,.47-.33.77.77,0,0,0,.19-.53,1.08,1.08,0,0,0-.22-.64,1.61,1.61,0,0,0-.56-.44l.65-.78a2.19,2.19,0,0,1,1.07,2A1.85,1.85,0,0,1,13.22,107.07Zm-3.41-1.8a.75.75,0,0,0,0,1.22,1.51,1.51,0,0,0,.76.23v-1.65A1.34,1.34,0,0,0,9.81,105.27Z"/><path class="cls-3" d="M13.22,102.31a1.55,1.55,0,0,1-1.13.36H9.73v.59H8.68v-.59H7.56L7,101.4H8.68v-1H9.73v1h2.4a.53.53,0,0,0,.34-.11.42.42,0,0,0,.14-.35,1.17,1.17,0,0,0-.14-.53h1a2.81,2.81,0,0,1,.11.82A1.46,1.46,0,0,1,13.22,102.31Z"/><path class="cls-3" d="M13.22,99.11a1.45,1.45,0,0,1-1.14.39H8.68V98.23h3a2,2,0,0,0,.67-.09.41.41,0,0,0,.26-.43.86.86,0,0,0-.14-.47,2.49,2.49,0,0,0-.39-.43H8.68V95.54h4.79v1.27H13a2.27,2.27,0,0,1,.59,1.43A1.24,1.24,0,0,1,13.22,99.11Z"/><path class="cls-3" d="M8.68,92.85h.83a2.63,2.63,0,0,1-.7-.66,1.34,1.34,0,0,1-.24-.81,2.15,2.15,0,0,1,0-.23H9.84a1.48,1.48,0,0,0,0,.31,1.26,1.26,0,0,0,.21.71,3.71,3.71,0,0,0,.66.68h2.79v1.27H8.68Z"/><path class="cls-3" d="M8.68,89.05h.49a3.16,3.16,0,0,1-.43-.69,1.58,1.58,0,0,1-.17-.72,1.32,1.32,0,0,1,.35-.9,1.52,1.52,0,0,1,1.15-.38h3.4v1.27H10.53a1.8,1.8,0,0,0-.69.1.39.39,0,0,0-.24.41.88.88,0,0,0,.14.46,4,4,0,0,0,.35.45h3.38v1.27H8.68Z"/><path class="cls-3" d="M6.44,37.21H7v2.36H9.4V37.21H10v5.56H9.4V40.05H7v2.72H6.44Z"/><path class="cls-3" d="M11.26,37.77a.38.38,0,0,1-.12-.28.39.39,0,0,1,.12-.28.4.4,0,0,1,.27-.11.41.41,0,0,1,.28.11.39.39,0,0,1,.12.28.41.41,0,0,1-.4.4A.37.37,0,0,1,11.26,37.77Zm0,1.08h.56v3.92h-.56Z"/><path class="cls-3" d="M16,39.13a.85.85,0,0,0-.46.16,1.33,1.33,0,0,1,.24.8,1.27,1.27,0,0,1-.19.7,1.18,1.18,0,0,1-.51.48,1.51,1.51,0,0,1-.71.16,1.6,1.6,0,0,1-.67-.13.64.64,0,0,0-.3.45c0,.16.26.26.77.31l.66.06a2.4,2.4,0,0,1,1,.27.71.71,0,0,1,.34.65.87.87,0,0,1-.48.8,2.63,2.63,0,0,1-1.29.28,2.5,2.5,0,0,1-1.25-.26.78.78,0,0,1-.44-.7c0-.33.22-.59.66-.76a.77.77,0,0,1-.34-.22.51.51,0,0,1-.11-.33.65.65,0,0,1,.1-.36,1.87,1.87,0,0,1,.38-.39,1,1,0,0,1-.33-.44,1.31,1.31,0,0,1-.12-.56,1.39,1.39,0,0,1,.19-.71,1.31,1.31,0,0,1,.52-.47,1.63,1.63,0,0,1,1.64.11,2.27,2.27,0,0,1,.36-.26.86.86,0,0,1,.36-.08h.16v.46ZM13.84,42.5a1.64,1.64,0,0,0-.53.25.46.46,0,0,0-.15.36.48.48,0,0,0,.34.45,2.32,2.32,0,0,0,.91.14,2.27,2.27,0,0,0,.87-.14.48.48,0,0,0,.35-.46.35.35,0,0,0-.23-.34,2.54,2.54,0,0,0-.78-.17ZM15,40.78a1,1,0,0,0,.23-.69A1,1,0,0,0,15,39.4a.75.75,0,0,0-.63-.27.81.81,0,0,0-.66.28,1,1,0,0,0-.24.69,1,1,0,0,0,.24.68.83.83,0,0,0,.63.26A.84.84,0,0,0,15,40.78Z"/><path class="cls-3" d="M17.52,36.93v2.33a3,3,0,0,1,.53-.37,1.27,1.27,0,0,1,.61-.14,1,1,0,0,1,.71.28,1.34,1.34,0,0,1,.27.94v2.8h-.55V40a1,1,0,0,0-.15-.54.5.5,0,0,0-.45-.24,1.5,1.5,0,0,0-1,.53v3H17V37.25Z"/><path class="cls-3" d="M21,42.34a2.39,2.39,0,0,1-.43-1.55A2.34,2.34,0,0,1,21,39.28a1.45,1.45,0,0,1,1.18-.53,1.18,1.18,0,0,1,1.06.53,2.54,2.54,0,0,1,.35,1.41c0,.08,0,.14,0,.19H21.14a1.92,1.92,0,0,0,.29,1.18,1,1,0,0,0,.79.38.94.94,0,0,0,.55-.19,1.57,1.57,0,0,0,.43-.49l.34.32a1.67,1.67,0,0,1-.57.58,1.56,1.56,0,0,1-.82.21A1.38,1.38,0,0,1,21,42.34Zm1.81-2.79a.82.82,0,0,0-1.21-.18,1.05,1.05,0,0,0-.32.49,2.13,2.13,0,0,0-.12.62H23A1.88,1.88,0,0,0,22.81,39.55Z"/><path class="cls-3" d="M25.1,38.85v.77a2.65,2.65,0,0,1,.58-.64,1,1,0,0,1,.64-.21l.2,0v.56l-.25,0a.93.93,0,0,0-.55.2,3.24,3.24,0,0,0-.62.7v2.55h-.55V38.85Z"/><path class="cls-3" d="M232.19,191.9h.58v2.36h2.38V191.9h.59v5.55h-.59v-2.71h-2.38v2.71h-.58Z"/><path class="cls-3" d="M237,192.46a.39.39,0,0,1,0-.56.37.37,0,0,1,.27-.12.4.4,0,0,1,0,.8A.37.37,0,0,1,237,192.46Zm0,1.08h.56v3.91H237Z"/><path class="cls-3" d="M241.71,193.82a.92.92,0,0,0-.46.15,1.38,1.38,0,0,1,.24.81,1.27,1.27,0,0,1-.19.7,1.11,1.11,0,0,1-.51.47,1.52,1.52,0,0,1-.71.17,1.46,1.46,0,0,1-.67-.14.64.64,0,0,0-.3.45c0,.17.26.27.77.32l.66.05a2.2,2.2,0,0,1,1,.28.7.7,0,0,1,.35.64.88.88,0,0,1-.48.81,2.63,2.63,0,0,1-1.29.28,2.48,2.48,0,0,1-1.25-.26.78.78,0,0,1-.44-.7c0-.34.22-.59.66-.76a.79.79,0,0,1-.34-.23.48.48,0,0,1-.12-.33.61.61,0,0,1,.11-.35,2,2,0,0,1,.37-.4,1.18,1.18,0,0,1-.33-.43,1.48,1.48,0,0,1-.11-.57,1.27,1.27,0,0,1,.19-.7,1.31,1.31,0,0,1,.51-.48,1.6,1.6,0,0,1,.73-.17,1.51,1.51,0,0,1,.92.29,1.77,1.77,0,0,1,.36-.26.74.74,0,0,1,.36-.09h.16v.47Zm-2.13,3.37a1.67,1.67,0,0,0-.52.25.46.46,0,0,0-.15.36.48.48,0,0,0,.34.45,2.52,2.52,0,0,0,.91.14,2.18,2.18,0,0,0,.86-.14.48.48,0,0,0,.36-.46.37.37,0,0,0-.24-.35,2.7,2.7,0,0,0-.78-.17Zm1.14-1.72a1.19,1.19,0,0,0,0-1.39.91.91,0,0,0-1.29,0,1,1,0,0,0-.24.69,1,1,0,0,0,.24.67.8.8,0,0,0,.63.27A.84.84,0,0,0,240.72,195.47Z"/><path class="cls-3" d="M243.27,191.61V194a2.54,2.54,0,0,1,.53-.37,1.28,1.28,0,0,1,.61-.15,1,1,0,0,1,.71.29,1.32,1.32,0,0,1,.27.94v2.79h-.56v-2.78a1,1,0,0,0-.14-.55.51.51,0,0,0-.45-.23,1.5,1.5,0,0,0-1,.53v3h-.56v-5.52Z"/><path class="cls-3" d="M246.75,197a2.41,2.41,0,0,1-.43-1.55,2.32,2.32,0,0,1,.43-1.51,1.42,1.42,0,0,1,1.17-.54A1.21,1.21,0,0,1,249,194a2.6,2.6,0,0,1,.34,1.42v.18h-2.44a1.82,1.82,0,0,0,.29,1.18.94.94,0,0,0,.79.38.9.9,0,0,0,.55-.19,1.5,1.5,0,0,0,.42-.48l.35.32a1.73,1.73,0,0,1-.57.57,1.5,1.5,0,0,1-.82.22A1.41,1.41,0,0,1,246.75,197Zm1.8-2.79a.73.73,0,0,0-.68-.38.79.79,0,0,0-.52.19,1.18,1.18,0,0,0-.33.49,2.19,2.19,0,0,0-.11.63h1.85A1.69,1.69,0,0,0,248.55,194.24Z"/><path class="cls-3" d="M250.85,193.54v.77a2.65,2.65,0,0,1,.58-.64,1,1,0,0,1,.64-.21.68.68,0,0,1,.2,0V194l-.25,0a.91.91,0,0,0-.56.21,3.25,3.25,0,0,0-.61.7v2.54h-.56v-3.91Z"/><path class="cls-3" d="M15.68,191.9h.58V197h2.36v.48H15.68Z"/><path class="cls-3" d="M19.5,197a2.44,2.44,0,0,1-.43-1.53A2.4,2.4,0,0,1,19.5,194a1.4,1.4,0,0,1,1.15-.54,1.37,1.37,0,0,1,1.14.54,2.4,2.4,0,0,1,.43,1.53,2.44,2.44,0,0,1-.43,1.53,1.39,1.39,0,0,1-1.14.53A1.42,1.42,0,0,1,19.5,197Zm1.93-.39a2.67,2.67,0,0,0,.22-1.14,2.74,2.74,0,0,0-.22-1.15.87.87,0,0,0-1.57,0,2.85,2.85,0,0,0-.21,1.15,2.88,2.88,0,0,0,.21,1.15.8.8,0,0,0,.79.48A.79.79,0,0,0,21.43,196.64Z"/><path class="cls-3" d="M22.6,193.54h.52l.78,3.26h0l.78-3.26h.59l.73,3.25h0l.79-3.25h.5l-1,3.91h-.58L25,194.24h0l-.77,3.21H23.6Z"/><path class="cls-3" d="M28.1,197a2.47,2.47,0,0,1-.42-1.55,2.32,2.32,0,0,1,.43-1.51,1.41,1.41,0,0,1,1.17-.54,1.18,1.18,0,0,1,1.06.53,2.6,2.6,0,0,1,.35,1.42.87.87,0,0,1,0,.18H28.25a1.89,1.89,0,0,0,.28,1.18,1,1,0,0,0,.8.38.92.92,0,0,0,.55-.19,1.5,1.5,0,0,0,.42-.48l.35.32a1.73,1.73,0,0,1-.57.57,1.5,1.5,0,0,1-.82.22A1.43,1.43,0,0,1,28.1,197Zm1.81-2.79a.73.73,0,0,0-.68-.38.82.82,0,0,0-.53.19,1.27,1.27,0,0,0-.32.49,1.9,1.9,0,0,0-.11.63h1.85A1.69,1.69,0,0,0,29.91,194.24Z"/><path class="cls-3" d="M32.21,193.54v.77a2.87,2.87,0,0,1,.57-.64,1.05,1.05,0,0,1,.65-.21.62.62,0,0,1,.19,0V194l-.24,0a.91.91,0,0,0-.56.21,3.25,3.25,0,0,0-.61.7v2.54h-.56v-3.91Z"/><path class="cls-3" d="M30.2,110.18a2.21,2.21,0,0,1-.73-1,4.16,4.16,0,0,1-.25-1.53,4.21,4.21,0,0,1,.25-1.54,2.1,2.1,0,0,1,.71-1,1.81,1.81,0,0,1,1.11-.34,1.64,1.64,0,0,1,1.12.39,2,2,0,0,1,.62,1.07l-.51.27a2.07,2.07,0,0,0-.42-.91,1.05,1.05,0,0,0-.81-.35,1.14,1.14,0,0,0-.77.28,1.84,1.84,0,0,0-.51.83,3.92,3.92,0,0,0-.19,1.3A3.71,3.71,0,0,0,30,108.9a1.93,1.93,0,0,0,.52.86,1.09,1.09,0,0,0,.76.3,1,1,0,0,0,.8-.37,2.09,2.09,0,0,0,.44-.91l.52.28a2.13,2.13,0,0,1-.63,1.07,1.63,1.63,0,0,1-1.13.4A1.78,1.78,0,0,1,30.2,110.18Z"/><path class="cls-3" d="M34.13,110a2.34,2.34,0,0,1-.43-1.53,2.38,2.38,0,0,1,.43-1.53,1.42,1.42,0,0,1,1.15-.53,1.39,1.39,0,0,1,1.14.53,2.44,2.44,0,0,1,.42,1.53,2.4,2.4,0,0,1-.42,1.53,1.36,1.36,0,0,1-1.14.53A1.39,1.39,0,0,1,34.13,110Zm1.93-.38a3.12,3.12,0,0,0,0-2.3.88.88,0,0,0-1.57,0,2.88,2.88,0,0,0-.21,1.15,2.85,2.85,0,0,0,.21,1.15.78.78,0,0,0,.79.49A.8.8,0,0,0,36.06,109.61Z"/><path class="cls-3" d="M38.35,106.5v.42a3,3,0,0,1,.54-.38,1.33,1.33,0,0,1,.6-.14.93.93,0,0,1,.71.28,1.34,1.34,0,0,1,.27.94v2.8h-.55v-2.78a1,1,0,0,0-.15-.55.48.48,0,0,0-.44-.24,1.57,1.57,0,0,0-1,.53v3H37.8V106.5Z"/><path class="cls-3" d="M42,110.35a1.6,1.6,0,0,1-.6-.53l.36-.36a1.61,1.61,0,0,0,.45.45,1.1,1.1,0,0,0,.59.17,1,1,0,0,0,.57-.17.61.61,0,0,0,.22-.5.56.56,0,0,0-.12-.36.79.79,0,0,0-.31-.22,3,3,0,0,0-.5-.18,5.4,5.4,0,0,1-.61-.23,1.2,1.2,0,0,1-.41-.33.94.94,0,0,1-.16-.57,1,1,0,0,1,.36-.82,1.37,1.37,0,0,1,.91-.3,1.67,1.67,0,0,1,.67.14A1.4,1.4,0,0,1,44,107l-.29.38a1.19,1.19,0,0,0-.92-.5.81.81,0,0,0-.52.17.55.55,0,0,0-.21.46.51.51,0,0,0,.12.35.7.7,0,0,0,.31.22,3,3,0,0,0,.5.18c.26.09.46.17.62.24a1.16,1.16,0,0,1,.4.33.94.94,0,0,1,.17.57,1.09,1.09,0,0,1-.38.86,1.44,1.44,0,0,1-1,.31A1.66,1.66,0,0,1,42,110.35Z"/><path class="cls-3" d="M45.23,110a2.38,2.38,0,0,1-.43-1.54,2.41,2.41,0,0,1,.43-1.52,1.45,1.45,0,0,1,1.18-.53,1.19,1.19,0,0,1,1.06.53,2.54,2.54,0,0,1,.35,1.41c0,.08,0,.14,0,.19H45.37a1.92,1.92,0,0,0,.29,1.18,1,1,0,0,0,.79.38.88.88,0,0,0,.55-.19,1.57,1.57,0,0,0,.43-.49l.34.33a1.73,1.73,0,0,1-.57.57,1.56,1.56,0,0,1-.82.21A1.38,1.38,0,0,1,45.23,110ZM47,107.2a.82.82,0,0,0-1.21-.18,1.1,1.1,0,0,0-.32.49,2.2,2.2,0,0,0-.12.62h1.86A1.88,1.88,0,0,0,47,107.2Z"/><path class="cls-3" d="M49.33,106.5v.77a2.65,2.65,0,0,1,.58-.64,1,1,0,0,1,.64-.21l.2,0V107l-.25,0a.88.88,0,0,0-.55.21,3,3,0,0,0-.62.7v2.54h-.55V106.5Z"/><path class="cls-3" d="M51,106.5h.6l1,3.37h0l1-3.37h.56l-1.21,3.92h-.67Z"/><path class="cls-3" d="M55.09,110.38a1,1,0,0,1-.42-.41,1.25,1.25,0,0,1-.16-.63,1.12,1.12,0,0,1,.42-.94,3,3,0,0,1,1.32-.45.8.8,0,0,0,.43-.13.47.47,0,0,0,.11-.36.57.57,0,0,0-.18-.46.71.71,0,0,0-.49-.16,1.09,1.09,0,0,0-.58.17,1.71,1.71,0,0,0-.44.45l-.31-.39a1.66,1.66,0,0,1,1.38-.67,1,1,0,0,1,1.16,1.18v2.84h-.54v-.49a2.77,2.77,0,0,1-.55.44,1.18,1.18,0,0,1-.59.15A1.08,1.08,0,0,1,55.09,110.38Zm1.21-.48a2.27,2.27,0,0,0,.47-.46v-1.13h0l-.48.07a2,2,0,0,0-.93.31.76.76,0,0,0-.29.63.79.79,0,0,0,.19.56.72.72,0,0,0,.53.2A.89.89,0,0,0,56.3,109.9Z"/><path class="cls-3" d="M58.84,110.26a1.52,1.52,0,0,1-.19-.87V107h-.57v-.47h.57v-1l.55-.34v1.38h.88V107H59.2v2.53c0,.38.14.57.41.57a.82.82,0,0,0,.48-.2v.47a1.2,1.2,0,0,1-.62.18A.75.75,0,0,1,58.84,110.26Z"/><path class="cls-3" d="M60.89,105.42a.36.36,0,0,1-.11-.27.36.36,0,0,1,.11-.28.38.38,0,0,1,.28-.12.37.37,0,0,1,.27.12.36.36,0,0,1,.12.28.41.41,0,0,1-.39.39A.38.38,0,0,1,60.89,105.42Zm0,1.08h.55v3.92H60.9Z"/><path class="cls-3" d="M62.07,106.5h.6l1,3.37h0l1-3.37h.56L64,110.42h-.68Z"/><path class="cls-3" d="M66,110a2.94,2.94,0,0,1,0-3.06,1.45,1.45,0,0,1,1.18-.53,1.19,1.19,0,0,1,1.06.53,2.54,2.54,0,0,1,.35,1.41,1,1,0,0,1,0,.19H66.12a1.92,1.92,0,0,0,.29,1.18,1,1,0,0,0,.79.38.88.88,0,0,0,.55-.19,1.45,1.45,0,0,0,.43-.49l.34.33a1.73,1.73,0,0,1-.57.57,1.53,1.53,0,0,1-.81.21A1.4,1.4,0,0,1,66,110Zm1.81-2.79a.73.73,0,0,0-.68-.37.77.77,0,0,0-.53.19,1.2,1.2,0,0,0-.32.49,1.88,1.88,0,0,0-.11.62H68A1.88,1.88,0,0,0,67.79,107.2Z"/><path class="cls-3" d="M88.74,73.77h.7L91,76.54h0l1.53-2.77h.68v5.56h-.57V74.68h0l-1.63,3-1.63-3h0v4.65h-.57Z"/><path class="cls-3" d="M94.63,78.9a2.44,2.44,0,0,1-.43-1.53,2.4,2.4,0,0,1,.43-1.53,1.39,1.39,0,0,1,1.15-.53,1.36,1.36,0,0,1,1.14.53,2.34,2.34,0,0,1,.43,1.53,2.38,2.38,0,0,1-.43,1.53,1.39,1.39,0,0,1-1.14.53A1.42,1.42,0,0,1,94.63,78.9Zm1.93-.38a3.12,3.12,0,0,0,0-2.3.87.87,0,0,0-1.57,0,2.85,2.85,0,0,0-.21,1.15A2.88,2.88,0,0,0,95,78.52a.88.88,0,0,0,1.57,0Z"/><path class="cls-3" d="M98.87,79.23a1.54,1.54,0,0,1-.57-.65,2.66,2.66,0,0,1-.23-1.18,2.94,2.94,0,0,1,.22-1.19,1.64,1.64,0,0,1,.56-.69,1.27,1.27,0,0,1,.69-.21.94.94,0,0,1,.51.14,2.21,2.21,0,0,1,.48.37v-2l.55-.33v5.85h-.52v-.42a2.06,2.06,0,0,1-.48.39,1,1,0,0,1-.54.13A1.24,1.24,0,0,1,98.87,79.23Zm1.28-.48a1.54,1.54,0,0,0,.38-.47V76.37a1.59,1.59,0,0,0-.38-.43.79.79,0,0,0-.49-.17.82.82,0,0,0-.78.49,2.41,2.41,0,0,0-.25,1.15,2.36,2.36,0,0,0,.14.85,1.25,1.25,0,0,0,.39.52.84.84,0,0,0,.5.17A.75.75,0,0,0,100.15,78.75Z"/><path class="cls-3" d="M102.46,78.9a2.47,2.47,0,0,1-.43-1.55,2.38,2.38,0,0,1,.43-1.51,1.42,1.42,0,0,1,1.18-.53,1.17,1.17,0,0,1,1.06.53,2.54,2.54,0,0,1,.35,1.41,1,1,0,0,1,0,.19H102.6a1.93,1.93,0,0,0,.29,1.17,1,1,0,0,0,1.34.2,1.45,1.45,0,0,0,.43-.49l.34.32a1.56,1.56,0,0,1-.57.57,1.45,1.45,0,0,1-.81.22A1.43,1.43,0,0,1,102.46,78.9Zm1.81-2.79a.74.74,0,0,0-.68-.38.78.78,0,0,0-.53.2,1.13,1.13,0,0,0-.32.49,1.84,1.84,0,0,0-.11.62h1.85A1.88,1.88,0,0,0,104.27,76.11Z"/><path class="cls-3" d="M106.56,75.41v.77a2.88,2.88,0,0,1,.58-.64,1.05,1.05,0,0,1,.65-.21l.19,0v.56l-.25,0a.93.93,0,0,0-.55.2,3.24,3.24,0,0,0-.62.7v2.55H106V75.41Z"/><path class="cls-3" d="M108.83,79.29a1.08,1.08,0,0,1-.41-.41,1.18,1.18,0,0,1-.16-.63,1.11,1.11,0,0,1,.42-.94,2.74,2.74,0,0,1,1.32-.45.94.94,0,0,0,.43-.13.47.47,0,0,0,.1-.36.57.57,0,0,0-.18-.46.69.69,0,0,0-.49-.16,1.08,1.08,0,0,0-.57.17,1.57,1.57,0,0,0-.45.44l-.3-.38a1.66,1.66,0,0,1,1.38-.67,1,1,0,0,1,1.16,1.17v2.85h-.55v-.49a2.86,2.86,0,0,1-.55.44,1.14,1.14,0,0,1-.58.15A1.2,1.2,0,0,1,108.83,79.29Zm1.22-.48a2.32,2.32,0,0,0,.47-.47V77.22h0l-.48.07a2.06,2.06,0,0,0-.93.31.87.87,0,0,0-.09,1.18.66.66,0,0,0,.53.21A.93.93,0,0,0,110.05,78.81Z"/><path class="cls-3" d="M112.59,79.17a1.51,1.51,0,0,1-.2-.87V75.88h-.57v-.47h.57v-1L113,74v1.38h.87v.47H113V78.4c0,.38.13.57.41.57a.79.79,0,0,0,.47-.19l0,.47a1.21,1.21,0,0,1-.63.18A.75.75,0,0,1,112.59,79.17Z"/><path class="cls-3" d="M114.81,78.9a2.47,2.47,0,0,1-.42-1.55,2.32,2.32,0,0,1,.43-1.51,1.4,1.4,0,0,1,1.17-.53,1.16,1.16,0,0,1,1.06.53,2.46,2.46,0,0,1,.35,1.41,1,1,0,0,1,0,.19H115a1.87,1.87,0,0,0,.28,1.17,1,1,0,0,0,.8.39,1,1,0,0,0,.55-.19,1.54,1.54,0,0,0,.42-.49l.35.32a1.73,1.73,0,0,1-.57.57,1.5,1.5,0,0,1-.82.22A1.43,1.43,0,0,1,114.81,78.9Zm1.81-2.79a.73.73,0,0,0-.68-.38.78.78,0,0,0-.53.2,1.13,1.13,0,0,0-.32.49A1.84,1.84,0,0,0,115,77h1.85A1.69,1.69,0,0,0,116.62,76.11Z"/><path class="cls-3" d="M149.94,52.73a2.09,2.09,0,0,1,1.48.42,1.4,1.4,0,0,1,.43,1,1.19,1.19,0,0,1-.87,1.19,1.46,1.46,0,0,1,.74.5,1.4,1.4,0,0,1,.25.85,1.6,1.6,0,0,1-.42,1.11,1.87,1.87,0,0,1-1.4.45h-1.63V52.73Zm.92,2.23a.76.76,0,0,0,.39-.76c0-.67-.45-1-1.36-1h-.78v2h.73A2.28,2.28,0,0,0,150.86,55Zm.2,2.57a1,1,0,0,0,.32-.8c0-.75-.48-1.12-1.45-1.12h-.82v2.21h.81A1.72,1.72,0,0,0,151.06,57.53Z"/><path class="cls-3" d="M153.25,58.25a1.15,1.15,0,0,1-.41-.41,1.19,1.19,0,0,1-.16-.64,1.09,1.09,0,0,1,.42-.93,2.74,2.74,0,0,1,1.32-.45.82.82,0,0,0,.43-.14.46.46,0,0,0,.1-.35.6.6,0,0,0-.18-.47.74.74,0,0,0-.49-.15,1,1,0,0,0-.57.17,1.45,1.45,0,0,0-.45.44l-.3-.38a1.67,1.67,0,0,1,1.38-.68,1.05,1.05,0,0,1,1.16,1.18v2.84H155V57.8a2.86,2.86,0,0,1-.55.44,1.14,1.14,0,0,1-.58.15A1.23,1.23,0,0,1,153.25,58.25Zm1.22-.49a2,2,0,0,0,.47-.46V56.18h0l-.48.06a2,2,0,0,0-.92.32.71.71,0,0,0-.29.63.77.77,0,0,0,.19.55A.68.68,0,0,0,154,58,.86.86,0,0,0,154.47,57.76Z"/><path class="cls-3" d="M156.68,52.76l.56-.32v5.84h-.56Z"/><path class="cls-3" d="M158.78,58.25a1.27,1.27,0,0,1-.42-.41,1.29,1.29,0,0,1-.15-.64,1.09,1.09,0,0,1,.42-.93,2.74,2.74,0,0,1,1.32-.45.78.78,0,0,0,.42-.14.46.46,0,0,0,.11-.35.6.6,0,0,0-.18-.47.74.74,0,0,0-.49-.15,1,1,0,0,0-.57.17,1.45,1.45,0,0,0-.45.44l-.31-.38a1.67,1.67,0,0,1,1.38-.68A1.05,1.05,0,0,1,161,55.44v2.84h-.55V57.8a3.2,3.2,0,0,1-.55.44,1.17,1.17,0,0,1-.58.15A1.2,1.2,0,0,1,158.78,58.25Zm1.22-.49a2,2,0,0,0,.46-.46V56.18h0l-.48.06a2,2,0,0,0-.93.32.74.74,0,0,0-.29.63.77.77,0,0,0,.2.55.66.66,0,0,0,.52.21A.88.88,0,0,0,160,57.76Z"/><path class="cls-3" d="M162.77,54.37v.41a2.54,2.54,0,0,1,.53-.37,1.28,1.28,0,0,1,.61-.15,1,1,0,0,1,.71.28,1.37,1.37,0,0,1,.27,1v2.79h-.56V55.5a1,1,0,0,0-.14-.55.5.5,0,0,0-.45-.24,1.53,1.53,0,0,0-1,.54v3h-.56V54.37Z"/><path class="cls-3" d="M166.26,57.86a2.35,2.35,0,0,1-.44-1.53,2.93,2.93,0,0,1,.2-1.13,1.61,1.61,0,0,1,.57-.7,1.48,1.48,0,0,1,.84-.24,1.27,1.27,0,0,1,.8.24,1.55,1.55,0,0,1,.49.66l-.45.28a1.46,1.46,0,0,0-.32-.54.73.73,0,0,0-.54-.21.79.79,0,0,0-.78.49,2.57,2.57,0,0,0-.23,1.15,2.54,2.54,0,0,0,.24,1.17.82.82,0,0,0,.79.47.75.75,0,0,0,.57-.23,1.73,1.73,0,0,0,.35-.6l.45.27a1.59,1.59,0,0,1-.55.72,1.32,1.32,0,0,1-.82.27A1.45,1.45,0,0,1,166.26,57.86Z"/><path class="cls-3" d="M169.88,57.86a2.47,2.47,0,0,1-.42-1.55,2.32,2.32,0,0,1,.43-1.51,1.41,1.41,0,0,1,1.17-.54,1.18,1.18,0,0,1,1.06.53,2.49,2.49,0,0,1,.35,1.42.87.87,0,0,1,0,.18H170a1.84,1.84,0,0,0,.29,1.18.92.92,0,0,0,.79.38.9.9,0,0,0,.55-.19,1.62,1.62,0,0,0,.42-.48l.35.32a1.73,1.73,0,0,1-.57.57,1.5,1.5,0,0,1-.82.22A1.43,1.43,0,0,1,169.88,57.86Zm1.81-2.79a.73.73,0,0,0-.68-.38.77.77,0,0,0-.53.19,1.2,1.2,0,0,0-.32.49,1.9,1.9,0,0,0-.11.63h1.85A1.69,1.69,0,0,0,171.69,55.07Z"/><path class="cls-3" d="M174,58.19a1.52,1.52,0,0,1-.56-.65,2.56,2.56,0,0,1-.23-1.18,3,3,0,0,1,.21-1.19,1.64,1.64,0,0,1,.56-.69,1.28,1.28,0,0,1,.69-.22,1,1,0,0,1,.51.14,2.58,2.58,0,0,1,.48.37v-2l.55-.32v5.84h-.52v-.42a2,2,0,0,1-.47.4,1.2,1.2,0,0,1-.54.13A1.36,1.36,0,0,1,174,58.19Zm1.29-.48a1.51,1.51,0,0,0,.37-.47V55.33a1.45,1.45,0,0,0-.38-.43.73.73,0,0,0-.49-.17.83.83,0,0,0-.78.48,2.44,2.44,0,0,0-.25,1.15,2.12,2.12,0,0,0,.15.85,1.14,1.14,0,0,0,.38.53.86.86,0,0,0,.5.17A.8.8,0,0,0,175.29,57.71Z"/><path class="cls-3" d="M216.4,39.73a2.18,2.18,0,0,1-.72-1,4.13,4.13,0,0,1-.26-1.52,4.23,4.23,0,0,1,.25-1.55,2.23,2.23,0,0,1,.72-1,1.81,1.81,0,0,1,1.11-.34,1.64,1.64,0,0,1,1.12.39,2,2,0,0,1,.61,1.06l-.49.24a2.07,2.07,0,0,0-.43-.88,1.05,1.05,0,0,0-.82-.34,1.13,1.13,0,0,0-.76.29,1.8,1.8,0,0,0-.52.83,4.12,4.12,0,0,0-.18,1.3,4.05,4.05,0,0,0,.18,1.27,2,2,0,0,0,.52.84,1.08,1.08,0,0,0,.76.29,1.17,1.17,0,0,0,.64-.18,1.13,1.13,0,0,0,.44-.5,1.65,1.65,0,0,0,.16-.75v-.35h-1.11v-.47h1.7V40h-.47l0-.67a1.3,1.3,0,0,1-.53.58,1.57,1.57,0,0,1-.79.2A1.74,1.74,0,0,1,216.4,39.73Z"/><path class="cls-3" d="M220.87,36.07v.76a3.12,3.12,0,0,1,.58-.64,1.09,1.09,0,0,1,.64-.21.64.64,0,0,1,.2,0v.55l-.25,0a.88.88,0,0,0-.55.21,3.24,3.24,0,0,0-.62.7V40h-.55V36.07Z"/><path class="cls-3" d="M223.13,39.55A2.34,2.34,0,0,1,222.7,38a2.38,2.38,0,0,1,.43-1.53,1.49,1.49,0,0,1,2.28,0,2.38,2.38,0,0,1,.43,1.53,2.34,2.34,0,0,1-.43,1.53,1.47,1.47,0,0,1-2.28,0Zm1.92-.38a2.71,2.71,0,0,0,.23-1.15,2.66,2.66,0,0,0-.23-1.14.87.87,0,0,0-1.56,0,3.14,3.14,0,0,0,0,2.31.87.87,0,0,0,1.56,0Z"/><path class="cls-3" d="M226.22,36.07h.53l.77,3.26h0l.78-3.26h.58l.73,3.25h0l.79-3.25h.5l-1,3.91h-.58l-.73-3.21h0L227.8,40h-.58Z"/><path class="cls-3" d="M231.89,39.82a1.43,1.43,0,0,1-.2-.87V36.53h-.57v-.46h.57V35l.55-.33v1.38h.88v.46h-.88v2.53q0,.57.42.57a.82.82,0,0,0,.47-.2v.48a1.17,1.17,0,0,1-.62.18A.72.72,0,0,1,231.89,39.82Z"/><path class="cls-3" d="M234.5,34.14v2.34a2.78,2.78,0,0,1,.54-.38,1.33,1.33,0,0,1,.6-.14,1,1,0,0,1,.71.28,1.34,1.34,0,0,1,.27.94V40h-.55V37.2a1,1,0,0,0-.15-.55.49.49,0,0,0-.44-.24,1.57,1.57,0,0,0-1,.53v3H234V34.46Z"/><path class="cls-3" d="M101.72,23l-1.37-3.21H99V23H97.9V15.6h2.47a2.86,2.86,0,0,1,1.34.29,2,2,0,0,1,.81.78,2.07,2.07,0,0,1,.27,1,1.9,1.9,0,0,1-.35,1.13,2.12,2.12,0,0,1-1,.74L102.94,23Zm-1.55-4.16a1.84,1.84,0,0,0,1.09-.28,1,1,0,0,0,.37-.84,1.12,1.12,0,0,0-.34-.87,1.43,1.43,0,0,0-1-.31H99v2.3Z"/><path class="cls-3" d="M104.05,16.6a.63.63,0,0,1-.2-.47.68.68,0,0,1,.67-.67.68.68,0,0,1,.48.19.66.66,0,0,1,.2.48.67.67,0,0,1-.2.47.69.69,0,0,1-.48.2A.67.67,0,0,1,104.05,16.6ZM104,17.74h1.08V23H104Z"/><path class="cls-3" d="M106.3,22.13l.68-.68a2,2,0,0,0,.54.61,1.21,1.21,0,0,0,.74.24,1,1,0,0,0,.59-.18.63.63,0,0,0,.25-.52.53.53,0,0,0-.15-.39,1.13,1.13,0,0,0-.36-.24,4.93,4.93,0,0,0-.59-.2,5.57,5.57,0,0,1-.84-.3,1.34,1.34,0,0,1-.54-.44,1.26,1.26,0,0,1-.22-.79,1.57,1.57,0,0,1,.24-.88,1.45,1.45,0,0,1,.66-.56,2.12,2.12,0,0,1,.91-.19,2.09,2.09,0,0,1,.94.21,2.36,2.36,0,0,1,.72.57l-.55.71a2.55,2.55,0,0,0-.52-.47,1.17,1.17,0,0,0-.62-.18.85.85,0,0,0-.57.18.6.6,0,0,0-.21.48.55.55,0,0,0,.27.5,3.53,3.53,0,0,0,.83.33,7.39,7.39,0,0,1,.83.3,1.45,1.45,0,0,1,.54.45,1.29,1.29,0,0,1,.23.8,1.46,1.46,0,0,1-.54,1.21,2.09,2.09,0,0,1-1.35.44A2.18,2.18,0,0,1,106.3,22.13Z"/><path class="cls-3" d="M114.28,23,113,20.45l-.65.81V23h-1.07V15.65l1.07-.5v3.57c0,.59,0,1,0,1.29h0q.41-.6.72-1l1-1.28h1.25l-1.57,1.9L115.49,23Z"/><path class="cls-3" d="M118.7,22.7a1.51,1.51,0,0,1-.46-1.16,1.45,1.45,0,0,1,.55-1.24,3.84,3.84,0,0,1,1.77-.59,2.27,2.27,0,0,0,.48-.1.38.38,0,0,0,.22-.16.69.69,0,0,0,.07-.32.67.67,0,0,0-.21-.52.81.81,0,0,0-.55-.18,1.37,1.37,0,0,0-.75.21,1.78,1.78,0,0,0-.58.58l-.58-.69a2.31,2.31,0,0,1,2-.92,1.87,1.87,0,0,1,1.32.42,1.59,1.59,0,0,1,.43,1.2V23h-1V22.4a3.51,3.51,0,0,1-.71.56,1.63,1.63,0,0,1-.78.18A1.61,1.61,0,0,1,118.7,22.7Zm2.59-1.16V20.39h0l-.7.09a2,2,0,0,0-1,.34.84.84,0,0,0-.31.7.8.8,0,0,0,.2.58.79.79,0,0,0,.59.22A1.6,1.6,0,0,0,121.29,21.54Z"/><path class="cls-3" d="M125,17.74v.54a2.43,2.43,0,0,1,1.55-.67,1.33,1.33,0,0,1,1,.38,1.7,1.7,0,0,1,.4,1.26V23h-1.08V19.52a1.67,1.67,0,0,0-.15-.75.56.56,0,0,0-.54-.29,1.17,1.17,0,0,0-.58.17,3.74,3.74,0,0,0-.57.45V23H124V17.74Z"/><path class="cls-3" d="M130.21,22.87a2,2,0,0,1-.75-.9,4,4,0,0,1-.28-1.64,3.48,3.48,0,0,1,.3-1.55,2,2,0,0,1,.75-.89,1.66,1.66,0,0,1,.89-.28,1.35,1.35,0,0,1,.67.16,3.48,3.48,0,0,1,.66.49V15.72l1.07-.5V23h-1V22.5a2.51,2.51,0,0,1-.63.48,1.5,1.5,0,0,1-.72.16A1.88,1.88,0,0,1,130.21,22.87ZM132,22a2,2,0,0,0,.45-.54V19.17a1.31,1.31,0,0,0-1-.7.92.92,0,0,0-.89.57,3.07,3.07,0,0,0-.27,1.31,2.67,2.67,0,0,0,.3,1.33A.94.94,0,0,0,132,22Z"/><path class="cls-3" d="M138.41,17.74v1a2.88,2.88,0,0,1,.75-.82,1.46,1.46,0,0,1,.88-.27,1.18,1.18,0,0,1,.26,0v1.07a1.65,1.65,0,0,0-.34,0,1.3,1.3,0,0,0-.78.25,3.83,3.83,0,0,0-.77.84V23h-1.08V17.74Z"/><path class="cls-3" d="M141.86,22.78a2.17,2.17,0,0,1-.77-1,3.63,3.63,0,0,1-.26-1.44,3.58,3.58,0,0,1,.26-1.43,2.31,2.31,0,0,1,.79-1,2.07,2.07,0,0,1,1.23-.35,1.79,1.79,0,0,1,1.51.7,3.3,3.3,0,0,1,.54,2.09v.19h-3.25a2,2,0,0,0,.33,1.26,1.07,1.07,0,0,0,.92.47,1.16,1.16,0,0,0,.72-.26,2,2,0,0,0,.53-.63l.67.59a2.53,2.53,0,0,1-.84.82,2.32,2.32,0,0,1-1.2.3A1.94,1.94,0,0,1,141.86,22.78Zm2-4a.87.87,0,0,0-.8-.42.88.88,0,0,0-.8.43,1.92,1.92,0,0,0-.3,1h2.14A1.87,1.87,0,0,0,143.85,18.83Z"/><path class="cls-3" d="M146.87,22.76a1.84,1.84,0,0,1-.33-1.21V18.63h-.71v-.89h.71V16.42l1.07-.56v1.88h1.14v.89h-1.14v3c0,.42.18.64.53.64a1.16,1.16,0,0,0,.61-.2V23a2.2,2.2,0,0,1-.87.19A1.29,1.29,0,0,1,146.87,22.76Z"/><path class="cls-3" d="M150.18,22.75a1.71,1.71,0,0,1-.4-1.26V17.74h1.08v3.49A1.67,1.67,0,0,0,151,22a.56.56,0,0,0,.54.31,1.74,1.74,0,0,0,1.15-.65V17.74h1.07V23H152.7v-.55A3.45,3.45,0,0,1,152,23a1.73,1.73,0,0,1-.81.19A1.34,1.34,0,0,1,150.18,22.75Z"/><path class="cls-3" d="M156.44,17.74v1a3.21,3.21,0,0,1,.75-.82,1.5,1.5,0,0,1,.88-.27,1.32,1.32,0,0,1,.27,0v1.07a1.75,1.75,0,0,0-.35,0,1.29,1.29,0,0,0-.77.25,4.09,4.09,0,0,0-.78.84V23h-1.07V17.74Z"/><path class="cls-3" d="M160.31,17.74v.54a2.45,2.45,0,0,1,1.55-.67,1.32,1.32,0,0,1,1,.38,1.66,1.66,0,0,1,.4,1.26V23h-1.08V19.52a1.67,1.67,0,0,0-.15-.75.54.54,0,0,0-.53-.29,1.14,1.14,0,0,0-.58.17,4.35,4.35,0,0,0-.58.45V23h-1.07V17.74Z"/><path class="cls-4" d="M49.05,153.69l23.88-7.76A25.1,25.1,0,1,1,41.3,129.81a24,24,0,0,1,7.75-1.23Z"/><path class="cls-5" d="M48.6,124.67h.5a28.54,28.54,0,0,1,27.56,20l.16.48L48.6,154.35Z"/><path class="cls-6" d="M49.1,125.17a28,28,0,0,1,27.09,19.69l-27.09,8.8V125.17m0-1h-1V155l1.3-.43,27.1-8.8,1-.31-.31-.95a29,29,0,0,0-28-20.38Z"/><path d="M28.14,120.87a1.37,1.37,0,0,1,.26.85,1.54,1.54,0,0,1-.22.76,1.64,1.64,0,0,1-.67.6,2.23,2.23,0,0,1-1.07.24,2.26,2.26,0,0,1-1.05-.23,1.6,1.6,0,0,1-.66-.59,1.39,1.39,0,0,1,0-1.56,2.2,2.2,0,0,1,.7-.6,1.78,1.78,0,0,1-.58-.54,1.31,1.31,0,0,1-.21-.76,1.24,1.24,0,0,1,.23-.76,1.41,1.41,0,0,1,.63-.52,2,2,0,0,1,.91-.19,2.28,2.28,0,0,1,.89.17,1.61,1.61,0,0,1,.64.5,1.21,1.21,0,0,1,.23.72,1.34,1.34,0,0,1-.21.77,1.81,1.81,0,0,1-.58.55A2.28,2.28,0,0,1,28.14,120.87Zm-1.05,1.36a.61.61,0,0,0,.22-.51.64.64,0,0,0-.23-.52,2.83,2.83,0,0,0-.66-.4,2.31,2.31,0,0,0-.6.41.69.69,0,0,0-.21.51.61.61,0,0,0,.24.5,1.13,1.13,0,0,0,1.24,0Zm-1.16-2.75a1.81,1.81,0,0,0,.54.36,2.24,2.24,0,0,0,.51-.36.66.66,0,0,0,.17-.44.46.46,0,0,0-.2-.4.75.75,0,0,0-.5-.16.76.76,0,0,0-.51.16.48.48,0,0,0-.2.4A.58.58,0,0,0,25.93,119.48Z"/><path d="M29.87,123a2.07,2.07,0,0,1-.75-.92,3.88,3.88,0,0,1-.29-1.6,3.63,3.63,0,0,1,.55-2.17,1.92,1.92,0,0,1,3,0,3.56,3.56,0,0,1,.55,2.17,3.88,3.88,0,0,1-.29,1.6,2,2,0,0,1-.76.92,1.91,1.91,0,0,1-1,.29A2,2,0,0,1,29.87,123Zm1.82-1.18a4.39,4.39,0,0,0,.18-1.34,8.7,8.7,0,0,0-.05-.93,1.83,1.83,0,0,0-.27-.74.81.81,0,0,0-1.3,0,1.58,1.58,0,0,0-.27.74,8.7,8.7,0,0,0-.05.93,4.39,4.39,0,0,0,.18,1.34.74.74,0,0,0,.79.56A.76.76,0,0,0,31.69,121.82Z"/><path d="M33.62,120a1.61,1.61,0,0,1-.29-1A1.92,1.92,0,0,1,33.6,118a1.21,1.21,0,0,1,1.83,0,1.86,1.86,0,0,1,.28,1.06,1.65,1.65,0,0,1-.29,1,1.22,1.22,0,0,1-1.8,0Zm1.2-.47a2.16,2.16,0,0,0,.06-.57,2.27,2.27,0,0,0-.06-.59.27.27,0,0,0-.3-.2c-.17,0-.27.06-.31.2a1.86,1.86,0,0,0-.07.59,1.76,1.76,0,0,0,.07.57.32.32,0,0,0,.61,0Zm2.41-1.92h.67l-2.81,5.56h-.68Zm-.33,5.24a1.63,1.63,0,0,1-.29-1,1.94,1.94,0,0,1,.27-1.06,1,1,0,0,1,.92-.42,1,1,0,0,1,.92.42,1.94,1.94,0,0,1,.28,1.06,1.57,1.57,0,0,1-.3,1,1,1,0,0,1-.9.4A1,1,0,0,1,36.9,122.89Zm1.2-.45a1.85,1.85,0,0,0,.07-.57,2.17,2.17,0,0,0-.06-.59.3.3,0,0,0-.31-.21.29.29,0,0,0-.31.21,2.17,2.17,0,0,0-.06.59,1.85,1.85,0,0,0,.07.57.32.32,0,0,0,.6,0Z"/><path class="cls-3" d="M60,121.45c.23-.24.52-.53.89-.87s.44-.4.58-.54a2.05,2.05,0,0,0,.35-.44.87.87,0,0,0,.13-.46.69.69,0,0,0-.19-.5.62.62,0,0,0-.48-.19.7.7,0,0,0-.58.27,1.09,1.09,0,0,0-.21.69,2,2,0,0,0,0,.22l-1-.37a1.47,1.47,0,0,1,.21-.9,1.57,1.57,0,0,1,.66-.59,2.2,2.2,0,0,1,.94-.2,2.07,2.07,0,0,1,1,.22,1.43,1.43,0,0,1,.61.58,1.74,1.74,0,0,1,.2.82,1.57,1.57,0,0,1-.19.77,2.51,2.51,0,0,1-.46.61c-.19.18-.43.39-.73.63s-.5.41-.66.56a2.43,2.43,0,0,0-.42.5H63v.95H59.38v-.93A3.84,3.84,0,0,1,60,121.45Z"/><path class="cls-3" d="M64.63,123a2,2,0,0,1-.76-.92,3.88,3.88,0,0,1-.29-1.6,3.63,3.63,0,0,1,.55-2.17,1.78,1.78,0,0,1,1.52-.74,1.75,1.75,0,0,1,1.51.74,3.56,3.56,0,0,1,.55,2.17,3.88,3.88,0,0,1-.29,1.6,2,2,0,0,1-.75.92,1.94,1.94,0,0,1-2,0Zm1.81-1.18a4.39,4.39,0,0,0,.18-1.34,8.7,8.7,0,0,0-.05-.93,1.83,1.83,0,0,0-.27-.74.81.81,0,0,0-1.3,0,1.69,1.69,0,0,0-.27.74,8.7,8.7,0,0,0,0,.93,4.39,4.39,0,0,0,.18,1.34.74.74,0,0,0,.79.56A.76.76,0,0,0,66.44,121.82Z"/><path class="cls-3" d="M68.37,120a1.61,1.61,0,0,1-.29-1,1.92,1.92,0,0,1,.27-1.06,1.21,1.21,0,0,1,1.83,0,1.86,1.86,0,0,1,.28,1.06,1.65,1.65,0,0,1-.29,1,1.22,1.22,0,0,1-1.8,0Zm1.2-.47a2.1,2.1,0,0,0,.07-.57,2.2,2.2,0,0,0-.07-.59.27.27,0,0,0-.3-.2c-.17,0-.27.06-.31.2a1.86,1.86,0,0,0-.07.59,2.1,2.1,0,0,0,.07.57.29.29,0,0,0,.31.22A.29.29,0,0,0,69.57,119.57ZM72,117.65h.67l-2.81,5.56h-.68Zm-.33,5.24a1.63,1.63,0,0,1-.29-1,1.94,1.94,0,0,1,.27-1.06,1,1,0,0,1,.92-.42,1,1,0,0,1,.92.42,1.94,1.94,0,0,1,.28,1.06,1.57,1.57,0,0,1-.3,1,1,1,0,0,1-.9.4A1,1,0,0,1,71.65,122.89Zm1.2-.45a1.85,1.85,0,0,0,.07-.57,2.17,2.17,0,0,0-.06-.59.3.3,0,0,0-.31-.21.29.29,0,0,0-.31.21,2.17,2.17,0,0,0-.06.59,1.85,1.85,0,0,0,.07.57.32.32,0,0,0,.6,0Z"/><path class="cls-3" d="M159.47,172.09h3v.51h-2.4v2.08h1.83v.51h-1.83V178h-.62Z"/><path class="cls-3" d="M163.27,172.69a.41.41,0,0,1-.13-.3.38.38,0,0,1,.13-.3.41.41,0,0,1,.58,0,.38.38,0,0,1,.13.3.41.41,0,0,1-.13.3.41.41,0,0,1-.58,0Zm0,1.15h.59V178h-.59Z"/><path class="cls-3" d="M166.63,175.8,168,178h-.68l-1.06-1.76h0l-1,1.76h-.62l1.28-2.18-1.25-2h.67l.93,1.57h0l.88-1.57h.62Z"/><path class="cls-3" d="M169,177.56a2.62,2.62,0,0,1-.45-1.65,2.5,2.5,0,0,1,.46-1.62,1.53,1.53,0,0,1,1.25-.56,1.26,1.26,0,0,1,1.13.56,2.7,2.7,0,0,1,.37,1.51,1.15,1.15,0,0,1,0,.2h-2.6a2.09,2.09,0,0,0,.31,1.26,1,1,0,0,0,.85.4.93.93,0,0,0,.58-.2,1.64,1.64,0,0,0,.46-.52l.36.35a1.72,1.72,0,0,1-.6.6,1.64,1.64,0,0,1-.88.24A1.51,1.51,0,0,1,169,177.56Zm1.93-3a.8.8,0,0,0-.73-.4.81.81,0,0,0-.56.21,1.18,1.18,0,0,0-.34.52,1.89,1.89,0,0,0-.12.67h2A1.92,1.92,0,0,0,170.91,174.58Z"/><path class="cls-3" d="M173.37,177.91a1.59,1.59,0,0,1-.6-.69,2.83,2.83,0,0,1-.24-1.26,2.9,2.9,0,0,1,.23-1.26,1.61,1.61,0,0,1,.59-.74,1.29,1.29,0,0,1,.74-.23,1.14,1.14,0,0,1,.54.14,2.36,2.36,0,0,1,.51.4v-2.14l.59-.35V178h-.56v-.44a2.59,2.59,0,0,1-.5.42,1.21,1.21,0,0,1-.58.14A1.34,1.34,0,0,1,173.37,177.91Zm1.38-.51a1.58,1.58,0,0,0,.39-.5v-2a1.62,1.62,0,0,0-.4-.46.83.83,0,0,0-.53-.18.86.86,0,0,0-.82.52,2.6,2.6,0,0,0-.27,1.23,2.39,2.39,0,0,0,.15.9,1.3,1.3,0,0,0,.41.56.93.93,0,0,0,.53.19A.85.85,0,0,0,174.75,177.4Z"/><path class="cls-3" d="M178.79,172.69a.44.44,0,0,1-.12-.3.41.41,0,0,1,.12-.3.42.42,0,0,1,.3-.12.4.4,0,0,1,.29.12.38.38,0,0,1,.13.3.41.41,0,0,1-.13.3.4.4,0,0,1-.29.12A.42.42,0,0,1,178.79,172.69Zm0,1.15h.59V178h-.59Z"/><path class="cls-3" d="M181.28,173.84v.44a2.36,2.36,0,0,1,.57-.4,1.37,1.37,0,0,1,.64-.15,1,1,0,0,1,.76.3,1.42,1.42,0,0,1,.29,1v3H183v-3a1.07,1.07,0,0,0-.16-.59.51.51,0,0,0-.47-.25,1.66,1.66,0,0,0-1,.56V178h-.59v-4.17Z"/><path class="cls-3" d="M185,177.57a2.54,2.54,0,0,1-.47-1.64,3.06,3.06,0,0,1,.22-1.2,1.62,1.62,0,0,1,.6-.75,1.6,1.6,0,0,1,.9-.25,1.4,1.4,0,0,1,.85.24,1.7,1.7,0,0,1,.53.71l-.48.3a1.6,1.6,0,0,0-.34-.57.8.8,0,0,0-.58-.23.87.87,0,0,0-.84.52,2.93,2.93,0,0,0-.24,1.23,2.6,2.6,0,0,0,.26,1.25.88.88,0,0,0,.84.5.78.78,0,0,0,.61-.25,1.91,1.91,0,0,0,.37-.63l.49.29a1.86,1.86,0,0,1-.59.76,1.45,1.45,0,0,1-.88.29A1.56,1.56,0,0,1,185,177.57Z"/><path class="cls-3" d="M188.87,177.56a2.57,2.57,0,0,1-.46-1.63,2.6,2.6,0,0,1,.46-1.64,1.52,1.52,0,0,1,1.22-.56,1.48,1.48,0,0,1,1.22.56,2.6,2.6,0,0,1,.46,1.64,2.57,2.57,0,0,1-.46,1.63,1.46,1.46,0,0,1-1.22.57A1.5,1.5,0,0,1,188.87,177.56Zm2.06-.41a2.89,2.89,0,0,0,.23-1.22,2.94,2.94,0,0,0-.23-1.23.86.86,0,0,0-.84-.52.83.83,0,0,0-.83.52,3,3,0,0,0-.23,1.23,3.1,3.1,0,0,0,.23,1.23.83.83,0,0,0,.83.51A.85.85,0,0,0,190.93,177.15Z"/><path class="cls-3" d="M193.37,173.84v.44a3.22,3.22,0,0,1,.57-.41,1.39,1.39,0,0,1,.63-.14.91.91,0,0,1,.94.62,3.64,3.64,0,0,1,.63-.47,1.34,1.34,0,0,1,.64-.15,1,1,0,0,1,.77.3,1.4,1.4,0,0,1,.28,1v3h-.59v-3a1,1,0,0,0-.15-.55.49.49,0,0,0-.46-.24,1.53,1.53,0,0,0-1,.57V178H195v-3a1,1,0,0,0-.14-.55.5.5,0,0,0-.46-.24,1.57,1.57,0,0,0-1,.57V178h-.59v-4.17Z"/><path class="cls-3" d="M199.28,177.56a2.55,2.55,0,0,1-.46-1.65,2.5,2.5,0,0,1,.46-1.62,1.54,1.54,0,0,1,1.25-.56,1.24,1.24,0,0,1,1.13.56,2.7,2.7,0,0,1,.38,1.51c0,.08,0,.15,0,.2h-2.6a2,2,0,0,0,.31,1.26,1,1,0,0,0,.84.4.94.94,0,0,0,.59-.2,1.75,1.75,0,0,0,.45-.52l.37.35a1.84,1.84,0,0,1-.61.6,1.58,1.58,0,0,1-.87.24A1.48,1.48,0,0,1,199.28,177.56Zm1.93-3a.8.8,0,0,0-.73-.4.79.79,0,0,0-.56.21,1.2,1.2,0,0,0-.35.52,2.48,2.48,0,0,0-.12.67h2A2,2,0,0,0,201.21,174.58Z"/><rect class="cls-4" x="146.5" y="169.92" width="8.89" height="8.89"/><path class="cls-3" d="M232,172.09h3.2v.51h-2.57v2.08h1.92v.51h-1.92v2.31h2.74V178H232Z"/><path class="cls-3" d="M238.08,178a1.16,1.16,0,0,1-.56.14,1.34,1.34,0,0,1-.72-.22,1.59,1.59,0,0,1-.6-.69A2.69,2.69,0,0,1,236,176a3,3,0,0,1,.24-1.27,1.63,1.63,0,0,1,.59-.73,1.28,1.28,0,0,1,.73-.23,1.1,1.1,0,0,1,.57.14,2.14,2.14,0,0,1,.5.38v-.41h.58v5.41l-.59.2v-1.87A2.48,2.48,0,0,1,238.08,178Zm.1-.56a1.87,1.87,0,0,0,.39-.46v-2.14a1.49,1.49,0,0,0-.41-.42.81.81,0,0,0-.52-.17.87.87,0,0,0-.82.51,2.61,2.61,0,0,0-.28,1.24,2.29,2.29,0,0,0,.17.92,1.34,1.34,0,0,0,.43.54.91.91,0,0,0,.52.18A.85.85,0,0,0,238.18,177.43Z"/><path class="cls-3" d="M240.72,177.83a1.44,1.44,0,0,1-.29-1v-3H241v3a1.12,1.12,0,0,0,.16.58.54.54,0,0,0,.48.26,1,1,0,0,0,.53-.17,4.28,4.28,0,0,0,.52-.4v-3.24h.59V178h-.59v-.43a3.24,3.24,0,0,1-.59.4,1.34,1.34,0,0,1-.64.15A1,1,0,0,1,240.72,177.83Z"/><path class="cls-3" d="M244.57,172.69a.44.44,0,0,1-.12-.3.41.41,0,0,1,.12-.3.42.42,0,0,1,.3-.12.4.4,0,0,1,.29.12.38.38,0,0,1,.13.3.41.41,0,0,1-.13.3.4.4,0,0,1-.29.12A.42.42,0,0,1,244.57,172.69Zm0,1.15h.59V178h-.59Z"/><path class="cls-3" d="M246.81,177.84a1.56,1.56,0,0,1-.21-.92v-2.59H246v-.49h.61v-1.11l.59-.36v1.47h.94v.49h-.94V177c0,.41.15.61.44.61a.85.85,0,0,0,.51-.21v.5a1.24,1.24,0,0,1-.66.2A.8.8,0,0,1,246.81,177.84Z"/><path class="cls-3" d="M248.5,179.43l.06-.5a1,1,0,0,0,.34.06.77.77,0,0,0,.65-.26,2,2,0,0,0,.37-.73l-1.5-4.16h.64l1.16,3.38h0l1.06-3.38h.57l-1.47,4.44a2.23,2.23,0,0,1-.52.91,1.25,1.25,0,0,1-.9.3A1.78,1.78,0,0,1,248.5,179.43Z"/><rect class="cls-7" x="219.15" y="169.92" width="8.84" height="8.84"/></svg>